<svg width="15" height="16" viewBox="0 0 15 16" fill="none" xmlns="http://www.w3.org/2000/svg">
<path d="M7.49999 1.31377L5.01451 3.85243L6.25725 5.12176L8.74273 2.5831C9.76806 1.53592 11.4457 1.53592 12.471 2.5831C13.4963 3.63028 13.4963 5.3439 12.471 6.39117L9.98546 8.92983L11.2283 10.1992L13.7138 7.6605C15.4287 5.90874 15.4287 3.06545 13.7138 1.31377C11.9988 -0.437924 9.21497 -0.437924 7.49999 1.31377ZM8.74273 10.1992L6.25725 12.7378C5.232 13.785 3.55428 13.785 2.52903 12.7378C1.5037 11.6906 1.5037 9.97701 2.52903 8.92983L5.01451 6.39117L3.77177 5.12176L1.28624 7.6605C-0.428748 9.41218 -0.428748 12.2555 1.28624 14.0071C3.00128 15.7588 5.78501 15.7588 7.49999 14.0071L9.98546 11.4685L8.74273 10.1992ZM4.39314 9.56449L9.36409 4.48709L10.6068 5.75642L5.63588 10.8338L4.39314 9.56449Z" fill="black"/>
</svg>
