<svg width="20" height="20" viewBox="0 0 20 20" fill="none" xmlns="http://www.w3.org/2000/svg">
<path d="M9.9999 0C6.17296 0 3.05957 3.11385 3.05957 6.94089C3.05957 10.6248 9.35665 19.2316 9.62478 19.596L9.87501 19.9366C9.90428 19.9766 9.95088 20 9.9999 20C10.0497 20 10.096 19.9766 10.1256 19.9366L10.3756 19.596C10.6439 19.2316 16.9408 10.6248 16.9408 6.94089C16.9408 3.11385 13.8269 0 9.9999 0ZM9.9999 4.45468C11.3711 4.45468 12.4861 5.56974 12.4861 6.94089C12.4861 8.31134 11.3711 9.42711 9.9999 9.42711C8.6295 9.42711 7.51369 8.31134 7.51369 6.94089C7.51369 5.56974 8.62945 4.45468 9.9999 4.45468Z" fill="black"/>
</svg>
