<svg width="20" height="18" viewBox="0 0 20 18" fill="none" xmlns="http://www.w3.org/2000/svg">
<path d="M19.5467 2.52035C19.2325 2.65971 18.9095 2.77732 18.5794 2.8728C18.9702 2.43087 19.2681 1.91087 19.45 1.34184C19.4908 1.21429 19.4485 1.07468 19.3437 0.991259C19.239 0.907776 19.0935 0.897776 18.9782 0.966098C18.2772 1.38184 17.521 1.68061 16.728 1.85532C15.9293 1.07481 14.8444 0.630615 13.7228 0.630615C11.3554 0.630615 9.42934 2.55661 9.42934 4.92396C9.42934 5.11041 9.44114 5.29583 9.4645 5.47867C6.52677 5.22073 3.79561 3.7768 1.92014 1.47623C1.8533 1.39423 1.75033 1.35003 1.64491 1.35848C1.53943 1.36674 1.44465 1.42623 1.39136 1.51764C1.01098 2.17035 0.809882 2.91687 0.809882 3.67641C0.809882 4.71093 1.17924 5.69247 1.83169 6.45944C1.6333 6.39073 1.44078 6.30486 1.25704 6.20286C1.1584 6.14795 1.03801 6.14879 0.940011 6.20499C0.841946 6.26118 0.780463 6.36453 0.777882 6.4775C0.777431 6.49653 0.777431 6.51557 0.777431 6.53486C0.777431 8.07905 1.60852 9.4693 2.87917 10.227C2.77 10.2161 2.66091 10.2003 2.55252 10.1796C2.44078 10.1583 2.32588 10.1974 2.25052 10.2827C2.17504 10.3678 2.15007 10.4865 2.18485 10.5949C2.65517 12.0633 3.86607 13.1434 5.32993 13.4726C4.11581 14.2331 2.72736 14.6314 1.26982 14.6314C0.965688 14.6314 0.659818 14.6135 0.360464 14.5781C0.211755 14.5604 0.0695618 14.6483 0.0189168 14.7897C-0.0317282 14.9312 0.0219491 15.0889 0.148465 15.17C2.02091 16.3706 4.186 17.0051 6.40954 17.0051C10.7808 17.0051 13.5153 14.9439 15.0394 13.2146C16.9401 11.0585 18.0301 8.20446 18.0301 5.38454C18.0301 5.26673 18.0283 5.14776 18.0247 5.02918C18.7746 4.46422 19.4202 3.78048 19.9456 2.99461C20.0254 2.87525 20.0167 2.71751 19.9243 2.60764C19.8319 2.49771 19.6781 2.46216 19.5467 2.52035Z" fill="black"/>
</svg>
